<svg width="40" height="40" viewBox="0 0 40 40" fill="none" xmlns="http://www.w3.org/2000/svg">
<path d="M10.295 11.1252L3.80322 8.29002C16.9836 -9.07216 44.8524 2.96731 39.1475 25.7957L33.1147 30.3352V19.5436C32.6557 7.83517 18.3606 2.44099 10.295 11.1252Z" fill="url(#paint0_linear_12_2)"/>
<path d="M11.3441 12.6356C18.426 4.67926 31.4064 9.60938 31.4066 20.1356V31.6092L29.8988 32.7586L27.5384 25.1268L23.932 25.4559C23.4074 31.9689 21.1121 36.7059 18.6859 38.4823L19.8656 23.4823L23.3441 23.8817C26.3605 24.1448 27.0818 19.5397 25.1146 18.6844L11.3441 12.6356ZM24.2601 19.2713C25.9673 20.066 25.1804 23.1569 23.0794 22.9549L6.9515 21.0584C6.68933 18.0322 7.47617 15.0716 9.18099 12.6375L24.2601 19.2713ZM23.1478 19.6053C22.4598 19.6053 21.9019 20.1942 21.9017 20.9207C21.9017 21.6474 22.4597 22.2361 23.1478 22.2362C23.8358 22.236 24.3939 21.6473 24.3939 20.9207C24.3937 20.1943 23.8357 19.6054 23.1478 19.6053Z" fill="url(#paint1_linear_12_2)"/>
<defs>
<linearGradient id="paint0_linear_12_2" x1="13.3114" y1="4.41467" x2="39.4007" y2="22.6893" gradientUnits="userSpaceOnUse">
<stop stop-color="#FF0000"/>
<stop offset="1" stop-color="#BD0000"/>
</linearGradient>
<linearGradient id="paint1_linear_12_2" x1="11.8694" y1="14.7436" x2="32.9739" y2="31.9116" gradientUnits="userSpaceOnUse">
<stop stop-color="#F2AE0D"/>
<stop offset="1" stop-color="#B2800C"/>
</linearGradient>
</defs>
</svg>
